#!OML:ASF H:\ColoradoDance\Project 1\Capture day 1\Session 8\male.ASF
:FULLY-SPECIFIED
:DEGREES
131
upperback -0.700094 -3.575460 -0.356970
rfoot 10.106000 -10.617900
lradius 52.739300
lthumb 11.852600 58.424000
rradius 33.414902
lwrist -4.805240
rhand -27.363300 -0.764202
rhumerus -51.032299 -7.215140 -71.443398
lowerneck -4.993200 -5.982730 -0.234661
lhand -14.286800 28.779499
ltibia 40.900002
head 3.754270 -3.936880 -0.926684
rwrist 6.707010
lfingers 7.125020
rtoes 8.913770
lowerback 4.961220 -2.551870 -2.646610
rfingers 7.125020
lclavicle 0.000000 -0.000000
upperneck 9.049210 -7.811020 -1.813330
rfemur -42.817001 11.686100 17.007999
thorax -3.362300 -1.730180 1.387380
rclavicle 0.000000 -0.000000
rtibia 41.772400
lfoot -13.960000 -14.065100
lhumerus -44.918400 -6.175730 77.813698
rthumb -0.770987 329.256989
root 38.609798 18.000700 27.997700 14.875400 71.293198 374.567993
ltoes 7.705010
lfemur -21.336100 -2.535580 -24.959400
132
upperback 0.262484 -1.991630 0.065343
rfoot 20.601900 -22.921801
lradius 31.519100
lthumb 13.572200 59.789799
rradius 32.023701
lwrist -9.006880
rhand -28.357401 -0.259646
rhumerus -42.461700 1.317740 -73.642403
lowerneck -4.689200 -6.195310 -2.364100
lhand -12.503100 30.252199
ltibia 43.284100
head 2.965290 -4.076760 1.292730
rwrist 9.275460
lfingers 7.125020
rtoes 21.225800
lowerback 7.610580 -1.421770 -1.284010
rfingers 7.125020
lclavicle -0.000000 0.000000
upperneck 5.795910 -8.361620 3.816880
rfemur -58.326599 2.579690 12.336400
thorax -3.948780 -0.959094 1.004480
rclavicle -0.000000 0.000000
rtibia 21.703400
lfoot -12.532800 -12.554100
lhumerus -36.416302 1.936350 65.986504
rthumb -1.731090 329.768005
root 37.977699 18.007500 27.658701 7.195620 67.770699 363.671997
ltoes 7.448940
lfemur -27.945900 2.211900 -22.005800
133
upperback -0.376979 0.949984 1.638120
rfoot -36.329102 -42.922100
lradius 24.221399
lthumb 15.189200 57.380699
rradius 31.031000
lwrist -14.569100
rhand -29.540501 -1.054960
rhumerus -38.246601 9.341860 -68.589897
lowerneck -4.707760 -5.703070 -2.140420
lhand -10.824800 27.958200
ltibia 42.305901
head 3.115710 -3.752520 0.749875
rwrist 9.951600
lfingers 7.125020
rtoes 49.895100
lowerback 7.128100 0.447515 3.135060
rfingers 7.125020
lclavicle -0.000000 -0.000000
upperneck 6.580750 -7.618590 2.177540
rfemur -37.094700 15.504800 -15.719100
thorax -4.369980 0.423704 -0.165988
rclavicle -0.000000 -0.000000
rtibia 21.083700
lfoot -12.581400 -4.169280
lhumerus -43.430302 11.516000 58.818802
rthumb -2.873720 328.984985
root 37.534500 18.129999 27.431101 3.149600 58.052101 358.345001
ltoes 3.919560
lfemur -28.909901 4.006290 -19.015100
134
upperback -1.035940 3.402270 -0.320668
rfoot -13.093800 -53.069599
lradius 20.713699
lthumb 13.875100 39.926498
rradius 28.667500
lwrist -18.929399
rhand -29.205500 18.820601
rhumerus -36.752899 11.999500 -63.247601
lowerneck -4.908660 -4.981180 -1.863370
lhand -12.188800 10.409400
ltibia 43.318901
head 3.945330 -3.286210 1.741830
rwrist 8.132130
lfingers 7.125020
rtoes 33.376701
lowerback 7.075520 2.446400 1.757280
rfingers 7.125020
lclavicle 0.000000 0.000000
upperneck 8.482350 -6.995940 5.302240
rfemur -19.039499 -13.652100 -4.649350
thorax -4.920310 1.629330 -1.696110
rclavicle 0.000000 0.000000
rtibia 27.605801
lfoot -13.481400 8.508360
lhumerus -50.426998 16.065399 45.711399
rthumb -2.550180 348.855988
root 36.116199 17.912100 27.901800 2.720310 29.867201 358.911987
ltoes -6.275720
lfemur -25.013700 15.050800 -11.825000
135
upperback -3.037040 1.430740 -3.976050
rfoot -15.116600 -35.621300
lradius 24.196301
lthumb 26.750500 10.365600
rradius 31.512501
lwrist -9.869420
rhand -29.817400 29.447800
rhumerus -31.885900 6.833170 -48.374199
lowerneck -3.873070 -10.597700 -2.976700
lhand 1.211760 -17.763201
ltibia 33.028702
head 5.500620 -7.165310 0.918327
rwrist 8.739610
lfingers 7.125020
rtoes 10.197400
lowerback -0.439735 1.171310 -1.841450
rfingers 7.125020
lclavicle -0.000000 0.000000
upperneck 14.257800 -14.835700 4.447250
rfemur -46.347500 -43.339298 22.704399
thorax -2.821110 0.698764 -3.092270
rclavicle -0.000000 0.000000
rtibia 49.307400
lfoot -2.337030 36.603600
lhumerus -53.167801 9.553990 39.867100
rthumb -3.141090 359.490997
root 32.537998 17.836800 29.017700 3.666650 -18.132401 363.493988
ltoes 0.662949
lfemur -1.054050 9.461260 -2.433300
136
upperback -2.623460 -1.784440 1.088140
rfoot -26.705500 -25.875999
lradius 17.683901
lthumb 18.683399 33.216000
rradius 35.547100
lwrist -23.713301
rhand -40.345501 -7.613590
rhumerus -36.172298 -8.549280 -29.335100
lowerneck -0.347924 -13.252200 -6.508540
lhand -7.194840 4.093230
ltibia 64.173103
head 4.830000 -9.195460 1.493800
rwrist 2.500900
lfingers 7.125020
rtoes 4.675220
lowerback 2.350770 -1.315800 -1.264340
rfingers 7.125020
lclavicle -0.000000 0.000000
upperneck 12.393900 -18.399799 4.667800
rfemur -32.064701 -11.801800 33.116699
thorax -3.946570 -0.839738 1.932120
rclavicle -0.000000 0.000000
rtibia 52.634701
lfoot -4.475090 14.515200
lhumerus -45.674000 20.412399 36.398602
rthumb -13.300900 322.830994
root 28.380501 17.683701 29.337700 5.106650 -60.229000 357.587006
ltoes 0.166476
lfemur -13.487200 3.924810 -3.484740
137
upperback -3.094220 -4.020310 3.438970
rfoot -28.893600 -12.652500
lradius 20.037901
lthumb 7.290010 52.735600
rradius 30.292299
lwrist -13.333300
rhand -17.612801 -4.671850
rhumerus -41.738499 -9.363510 -32.494202
lowerneck -5.412470 -6.112350 -2.383170
lhand -19.015699 22.881201
ltibia 44.744099
head 4.576780 -4.204570 0.940498
rwrist 12.662900
lfingers 7.125020
rtoes -2.022050
lowerback 3.929680 -3.055300 -0.390290
rfingers 7.125020
lclavicle -0.000000 0.000000
upperneck 11.468900 -8.599910 3.423460
rfemur -19.149000 19.149401 31.188000
thorax -5.136690 -1.944670 4.124730
rclavicle -0.000000 0.000000
rtibia 46.182201
lfoot -12.134000 9.687210
lhumerus -37.653000 12.698400 42.126701
rthumb 8.644020 325.524994
root 24.952600 17.807199 29.814600 182.789001 -68.902702 187.341003
ltoes 0.247216
lfemur -40.383801 -4.243240 0.461540
138
upperback -2.262220 -4.642690 2.638500
rfoot -24.208500 -11.618600
lradius 24.721201
lthumb 10.186800 55.013401
rradius 24.547199
lwrist -12.740300
rhand -51.990501 32.033699
rhumerus -48.893002 -10.698700 -27.911200
lowerneck -6.048370 0.131774 3.400430
lhand -16.013800 25.280001
ltibia 34.062000
head 4.463150 -0.088451 -1.801430
rwrist 7.772360
lfingers 7.125020
rtoes -22.660200
lowerback 3.901280 -3.568900 1.334760
rfingers 7.125020
lclavicle 0.000000 0.000000
upperneck 10.146400 0.040065 -3.491400
rfemur -7.625890 30.991400 5.712270
thorax -4.408380 -2.330210 2.336230
rclavicle 0.000000 0.000000
rtibia 29.696199
lfoot -10.698300 0.198308
lhumerus -37.674301 10.697100 51.492802
rthumb -24.498400 363.580994
root 19.926100 18.296101 30.209801 195.167007 -23.122601 176.815994
ltoes -7.224540
lfemur -36.881199 -8.750150 -4.484170
139
upperback -2.700710 -0.431819 0.541223
rfoot -22.053301 -23.268200
lradius 22.812799
lthumb 10.056000 57.325901
rradius 25.629499
lwrist -16.847099
rhand -25.080200 16.332500
rhumerus -49.775398 -7.021320 -45.913200
lowerneck -4.611340 3.655750 8.007260
lhand -16.149500 27.586201
ltibia 48.746101
head 3.834970 2.546020 -3.801400
rwrist 7.474810
lfingers 7.125020
rtoes -13.451500
lowerback 3.378270 -0.466291 2.358180
rfingers 7.125020
lclavicle -0.000000 0.000000
upperneck 8.849180 5.290370 -9.008390
rfemur -13.573800 7.328020 10.001100
thorax -4.700100 -0.266221 -0.731931
rclavicle -0.000000 0.000000
rtibia 46.238499
lfoot -23.751699 14.005100
lhumerus -36.323601 6.684090 49.160500
rthumb 1.434070 346.358002
root 15.502800 18.253401 29.938101 197.675995 16.618500 177.470993
ltoes -6.145560
lfemur -38.607101 11.772300 -26.277000
140
upperback -4.182560 2.858550 -1.832670
rfoot -18.438801 -9.932530
lradius 24.663000
lthumb 4.893650 60.469101
rradius 29.650400
lwrist -12.574400
rhand -1.355460 13.902700
rhumerus -47.875801 -3.613300 -75.632202
lowerneck -3.796390 7.804300 10.073400
lhand -21.497801 30.545601
ltibia 51.695202
head 4.041950 5.283210 -4.049640
rwrist 4.611070
lfingers 7.125020
rtoes -38.205700
lowerback 1.266970 2.094180 0.784253
rfingers 7.125020
lclavicle -0.000000 0.000000
upperneck 7.852140 10.787100 -9.844630
rfemur 1.943820 0.246936 31.648600
thorax -4.897790 1.395940 -2.493610
rclavicle -0.000000 0.000000
rtibia 23.983700
lfoot -28.197599 21.313200
lhumerus -38.396500 5.000690 46.953499
rthumb 24.291500 345.421997
root 12.495700 18.130800 29.797501 199.541000 47.498501 179.483994
ltoes 2.044780
lfemur -45.982899 18.407101 -37.445702
141
upperback -3.545760 2.440500 -2.710400
rfoot -31.284201 -17.523800
lradius 33.459999
lthumb 10.721600 66.451302
rradius 41.077702
lwrist -8.601140
rhand -8.436700 7.222530
rhumerus -46.566601 -3.574750 -83.106003
lowerneck -0.533851 11.267200 12.661100
lhand -15.459400 36.744900
ltibia 64.456902
head 3.459560 7.779280 -5.474350
rwrist 3.198640
lfingers 7.125020
rtoes -14.505200
lowerback 1.621480 1.757230 3.337300
rfingers 7.125020
lclavicle -0.000000 0.000000
upperneck 4.252460 15.703300 -13.877400
rfemur -5.709690 -1.426560 30.634399
thorax -4.323020 1.078770 -4.816340
rclavicle -0.000000 0.000000
rtibia 25.697100
lfoot -6.241990 -9.622080
lhumerus -31.553101 -2.725620 58.797001
rthumb 17.488600 337.989014
root 9.198620 18.053801 30.010900 199.348007 68.995499 178.326004
ltoes 7.522600
lfemur -59.779202 20.538900 -34.891300
142
upperback -4.283010 0.111191 -1.836860
rfoot -34.793098 -15.254400
lradius 41.483898
lthumb 5.989870 53.465000
rradius 32.476299
lwrist -4.652450
rhand -43.815800 -23.424900
rhumerus -59.998199 -15.239700 -64.995796
lowerneck 2.613370 13.630800 15.995200
lhand -20.362499 23.569599
ltibia 66.034798
head 3.760510 9.713380 -5.709460
rwrist 1.430400
lfingers 7.125020
rtoes -14.629600
lowerback 0.768795 0.014965 2.745410
rfingers 7.125020
lclavicle 0.000000 0.000000
upperneck 4.380360 19.295900 -13.661100
rfemur -9.279520 -2.903740 28.544901
thorax -4.853850 -0.062424 -3.453350
rclavicle 0.000000 0.000000
rtibia 35.444401
lfoot -22.929501 17.942301
lhumerus -29.527100 -10.453800 67.423103
rthumb -16.643900 307.269012
root 8.105440 17.899300 29.809700 207.347000 78.164803 190.332993
ltoes -7.621460
lfemur -37.865002 28.434601 -16.897100
143
upperback -2.644180 -1.471090 -2.131260
rfoot -6.522960 -3.036910
lradius 40.637501
lthumb 6.272930 50.823898
rradius 15.804600
lwrist -6.827020
rhand -13.129300 8.609700
rhumerus -74.368797 -19.463400 -51.069401
lowerneck 0.549268 12.714200 15.453200
lhand -20.069300 20.936800
ltibia 48.922798
head 3.568230 8.790220 -5.202020
rwrist 23.114799
lfingers 7.125020
rtoes -28.820801
lowerback 2.485830 -1.021860 -1.693050
rfingers 7.125020
lclavicle -0.000000 -0.000000
upperneck 4.142640 17.560400 -12.038800
rfemur -34.984200 -17.935900 20.324200
thorax -4.133120 -0.694475 -1.162230
rclavicle -0.000000 -0.000000
rtibia 81.009102
lfoot -29.442101 13.780600
lhumerus -19.310200 -22.890699 85.518303
rthumb 12.968600 339.032990
root 8.358510 17.896799 29.299700 189.384995 70.724800 175.598999
ltoes -18.520700
lfemur -22.699499 23.986300 -18.093000
144
upperback -1.644960 -1.923290 -1.006550
rfoot -4.323050 -15.389500
lradius 48.178699
lthumb 8.111550 50.438400
rradius 21.295300
lwrist -4.775370
rhand -9.663450 13.220300
rhumerus -68.637199 -18.142401 -75.689796
lowerneck 1.429070 12.550800 14.281000
lhand -18.164499 20.614100
ltibia 34.641899
head 3.729320 8.851800 -4.639400
rwrist 12.308800
lfingers 7.125020
rtoes -7.214910
lowerback 2.664070 -1.422900 -0.160547
rfingers 7.125020
lclavicle 0.000000 -0.000000
upperneck 5.924270 17.572001 -10.624900
rfemur -41.991100 -8.401200 5.867640
thorax -3.213040 -0.961088 -0.840598
rclavicle 0.000000 -0.000000
rtibia 51.511101
lfoot -24.525499 12.744800
lhumerus -29.040501 -40.102501 101.830002
rthumb 16.307699 343.885986
root 10.358400 18.139099 29.664499 191.953995 56.831001 182.391998
ltoes -18.505501
lfemur -8.715200 9.909360 -6.115440
